<?xml version="1.0" encoding="UTF-8" standalone="no"?>
<!-- Created with Inkscape (http://www.inkscape.org/) -->

<svg
   width="196.83081mm"
   height="56.317905mm"
   viewBox="0 0 196.83081 56.317905"
   version="1.1"
   id="svg1"
   xml:space="preserve"
   xmlns="http://www.w3.org/2000/svg"
   xmlns:svg="http://www.w3.org/2000/svg"><defs
     id="defs1" /><g
     id="layer1"
     transform="translate(-6.8337285,-22.474422)"><path
       style="fill:#000000;stroke-width:0.314321"
       d="m 98.629472,78.761616 c -1.745134,-0.133105 -3.365948,-0.966668 -4.426046,-2.276257 -0.480232,-0.593252 -1.084318,-1.78516 -1.284534,-2.534488 -0.211299,-0.790797 -0.205258,-2.902504 0.01059,-3.700801 0.950679,-3.516045 3.980593,-6.098945 8.428618,-7.185112 0.88732,-0.216677 2.53867,-0.473905 3.3896,-0.527999 l 0.33266,-0.02115 0.0222,-2.183055 c 0.0122,-1.200681 -9.5e-4,-2.183056 -0.0294,-2.183056 -0.0284,0 -0.2401,0.169539 -0.47057,0.376751 -1.43267,1.288093 -3.62674,2.275039 -5.415059,2.435823 -3.059612,0.275084 -5.705759,-0.951119 -7.332246,-3.397704 l -0.39039,-0.587227 -0.784696,0.831822 c -0.999728,1.059767 -1.671853,1.567694 -2.814808,2.127157 -1.023938,0.501206 -1.777459,0.731286 -2.996977,0.915091 -3.460788,0.521612 -6.290766,-0.583068 -7.857004,-3.066979 l -0.361419,-0.573176 -0.201316,0.240521 c -0.48782,0.58282 -1.431847,1.492097 -1.940994,1.869543 -1.8498,1.371315 -4.342854,1.963562 -6.934316,1.647311 -2.021931,-0.246751 -3.330778,-1.086903 -4.064001,-2.608696 -0.154885,-0.321462 -0.304287,-0.651339 -0.332001,-0.733062 -0.04137,-0.121972 -0.166006,-0.03484 -0.695759,0.486392 -1.030063,1.013487 -2.651182,2.017333 -3.931537,2.434525 -1.814181,0.591134 -3.676673,0.600947 -5.326499,0.02807 -1.829334,-0.635214 -3.347397,-2.01954 -4.383719,-3.997526 -0.158288,-0.302125 -0.311743,-0.542778 -0.341006,-0.534788 -0.02926,0.008 -0.36476,0.22345 -0.745544,0.478805 -1.615081,1.083058 -3.544247,1.736946 -5.461801,1.851264 l -0.831643,0.04958 -0.66531,0.635104 c -0.806453,0.769835 -1.241844,1.076093 -2.140691,1.505773 -1.14778,0.548675 -1.821345,0.691961 -3.264972,0.694542 -1.809303,0.0032 -3.058279,-0.357836 -4.444018,-1.284742 -2.037028,-1.362546 -3.255295,-3.547428 -3.489659,-6.25847 -0.0732,-0.846777 -0.06581,-0.935029 0.125408,-1.496953 1.257321,-3.694828 2.273158,-7.677856 2.773057,-10.872943 l 0.176447,-1.12777 -0.375088,-0.559359 c -0.867183,-1.293194 -0.831061,-2.593624 0.109233,-3.932552 0.850825,-1.211534 2.541236,-2.452108 3.146147,-2.308926 1.083963,0.256574 1.762978,2.072387 1.784999,4.773433 l 0.0098,1.205879 1.455811,1.289042 c 3.745283,3.316245 5.526212,5.387563 6.422067,7.469223 0.577121,1.341031 0.706235,2.020052 0.698738,3.674759 -0.0059,1.296985 -0.03011,1.541244 -0.222731,2.244464 -0.118879,0.434005 -0.198949,0.80629 -0.17794,0.827299 0.021,0.021 0.278149,-0.0028 0.57142,-0.05313 1.428682,-0.244724 2.447493,-1.165215 3.297658,-2.979421 0.248113,-0.529458 0.322204,-0.789753 0.322384,-1.132596 3.14e-4,-0.698552 0.164754,-1.872629 0.376773,-2.69101 1.17456,-4.533706 5.577613,-8.191975 10.226411,-8.496593 1.148626,-0.07527 2.370488,0.134099 3.472097,0.594937 0.138028,0.05774 0.145537,-0.358068 0.145537,-8.059823 0,-7.895908 0.0045,-8.129533 0.162683,-8.439586 0.460584,-0.90282 1.633199,-1.219637 3.113194,-0.841119 1.299172,0.332275 2.524759,1.210104 2.964048,2.123014 0.260126,0.540578 0.264454,1.169506 0.01744,2.536503 -0.369029,2.042368 -0.554402,4.539659 -0.685235,9.231208 -0.10719,3.8437 -0.104858,13.55939 0.0036,15.150029 0.237881,3.487587 0.89637,6.072398 1.70387,6.688306 0.243881,0.186019 0.350046,0.214804 0.662378,0.1796 1.617686,-0.182337 3.623694,-2.666226 5.273495,-6.529769 l 0.50654,-1.186225 v -5.118207 c 0,-3.492893 0.02948,-5.235318 0.09286,-5.487001 0.126706,-0.503196 0.624732,-1.049058 1.172253,-1.284842 0.656418,-0.282685 1.663339,-0.320076 2.554008,-0.09485 1.116476,0.282336 1.900971,0.835352 2.288673,1.613371 0.261908,0.525579 0.269901,0.909403 0.0491,2.357133 -0.377549,2.475474 -0.453562,3.553176 -0.456919,6.478131 -0.0033,2.897438 0.04839,3.621699 0.36851,5.161164 0.397732,1.912682 1.124134,3.198735 2.073933,3.671776 0.477459,0.237796 1.347606,0.20285 1.947531,-0.07821 1.369034,-0.64139 2.890661,-2.866678 4.109789,-6.010313 0.336342,-0.86729 0.43028,-1.220951 0.474916,-1.788027 0.234361,-2.977223 1.531717,-5.689394 3.721537,-7.780001 1.665865,-1.590388 3.641205,-2.590978 5.762955,-2.919169 1.464688,-0.226556 3.175218,-0.0253 4.347908,0.511582 0.24977,0.114347 0.48652,0.207904 0.52612,0.207904 0.0396,0 0.12351,-0.123295 0.18648,-0.273987 0.063,-0.150692 0.28715,-0.425977 0.49819,-0.611747 0.51062,-0.449466 1.12898,-0.640205 2.04846,-0.631872 1.52968,0.01386 2.90662,0.752254 3.41375,1.830651 0.20834,0.443016 0.20471,0.770997 -0.0328,2.971934 -0.14944,1.384568 -0.27354,3.291411 -0.38428,5.904648 -0.1079,2.54613 -0.28263,12.178506 -0.22201,12.239123 0.10372,0.103713 0.87791,-0.446744 1.47533,-1.04897 1.60735,-1.620295 3.24739,-4.863332 4.77579,-9.443709 0.77468,-2.321598 1.01994,-3.225616 1.31987,-4.865097 0.25646,-1.401836 0.38489,-2.678978 0.38489,-3.827358 v -0.88773 l -0.35345,-0.158169 c -0.36947,-0.165339 -1.12207,-0.740097 -1.45058,-1.107812 -0.30931,-0.346224 -0.67667,-1.171341 -0.77619,-1.743408 -0.19066,-1.095952 0.24873,-2.37911 1.12042,-3.271919 0.90585,-0.927812 1.60997,-1.271682 2.48319,-1.212719 0.62139,0.04196 1.01267,0.219355 1.5506,0.703007 0.76141,0.684575 1.44978,1.981981 1.82475,3.439197 0.27585,1.072004 0.24909,1.037174 0.98036,1.276074 0.92285,0.301483 1.49963,0.387205 2.60527,0.387205 1.19742,0 2.28258,-0.178918 3.36752,-0.555235 1.61179,-0.559051 1.87923,-0.622726 2.40473,-0.572545 1.65185,0.157736 2.35574,1.890929 1.65701,4.080104 -0.073,0.228703 -0.33041,0.846196 -0.57204,1.372208 -1.20363,2.620226 -1.79651,5.411107 -1.66953,7.859 0.15311,2.951746 1.06418,5.126097 2.47539,5.907769 0.38925,0.215605 0.52809,0.246371 1.11185,0.246371 0.59017,0 0.73397,-0.0327 1.24746,-0.283681 1.47194,-0.719433 2.97841,-2.854161 4.19554,-5.945233 0.32467,-0.824558 0.40672,-1.141572 0.4542,-1.754834 0.22385,-2.891933 1.31631,-5.327856 3.33226,-7.430191 0.41166,-0.429299 1.06658,-1.02047 1.45537,-1.31371 0.78813,-0.59443 2.20101,-1.327675 3.18174,-1.651234 1.91431,-0.631561 4.26843,-0.564944 5.86495,0.165965 0.24976,0.114347 0.48651,0.207904 0.52611,0.207904 0.0396,0 0.12352,-0.123295 0.18648,-0.273987 0.063,-0.150692 0.28715,-0.425977 0.4982,-0.611747 0.51062,-0.449466 1.12897,-0.640205 2.04845,-0.631872 1.94487,0.01763 3.57841,1.204543 3.57841,2.600052 0,0.230422 -0.11079,1.194491 -0.2462,2.142382 -0.58561,4.099572 -0.99892,9.057303 -0.88358,10.598896 0.18044,2.411695 1.30645,4.058384 2.87222,4.200363 0.40324,0.03656 0.56158,0.0079 0.95783,-0.17353 1.31051,-0.599973 2.8795,-2.952918 4.06818,-6.100888 l 0.38365,-1.016014 V 46.06254 c 0,-5.459356 -5e-5,-5.458554 0.41608,-6.042955 0.26275,-0.368994 0.95999,-0.668954 1.67573,-0.720917 1.13712,-0.08255 2.30424,0.330285 3.15403,1.11565 l 0.47172,0.435957 0.1975,-0.154184 c 0.43915,-0.34283 1.15375,-0.679206 1.89143,-0.890339 0.71463,-0.204531 0.8661,-0.219433 1.82961,-0.179992 1.52284,0.06234 2.61492,0.44537 3.63216,1.273926 l 0.47029,0.38305 0.22046,-0.206656 c 0.5488,-0.514446 1.6764,-1.087022 2.59064,-1.315492 0.66729,-0.16676 2.70691,-0.143416 3.44901,0.03947 1.03672,0.255499 1.75427,0.662403 2.49722,1.416119 0.76587,0.776973 1.22414,1.599993 1.57979,2.83722 0.50825,1.768051 0.62405,3.110641 0.62405,7.23527 0,3.381247 0.0695,4.663411 0.30164,5.567005 0.24513,0.954048 0.65875,1.482129 1.24737,1.592557 1.41566,0.265579 2.81966,-1.96653 4.65669,-7.403339 0.29303,-0.867237 0.59046,-1.664816 0.66095,-1.772399 0.60638,-0.925445 2.38246,-0.539346 3.34914,0.728058 0.26134,0.342648 0.27936,0.40482 0.24072,0.830923 -0.0517,0.570395 -0.74201,2.446824 -1.39195,3.783759 -1.60556,3.302688 -3.90752,5.505486 -6.44489,6.167273 -0.88364,0.230466 -2.66643,0.206832 -3.65922,-0.04851 -2.50055,-0.643138 -3.86773,-2.266532 -4.41765,-5.245539 -0.12739,-0.690047 -0.14698,-1.395383 -0.1548,-5.57199 -0.009,-4.832037 -0.0432,-5.50479 -0.33963,-6.694705 -0.25294,-1.015225 -0.73252,-1.624454 -1.27515,-1.619871 -0.60564,0.0051 -1.55966,0.76286 -2.23003,1.771232 l -0.38313,0.576317 0.10615,0.63413 c 0.18226,1.088807 0.20059,3.82593 0.0457,6.82985 -0.20303,3.938436 -0.084,5.507513 0.53608,7.068943 0.44372,1.117259 0.29277,1.718542 -0.53283,2.122473 -1.13745,0.556502 -2.92387,0.242734 -3.8413,-0.674687 -0.40833,-0.40834 -0.94431,-1.478351 -1.16261,-2.321007 -0.16883,-0.651691 -0.1815,-1.503903 -0.11379,-7.651093 0.0278,-2.522908 0.009,-3.658467 -0.0736,-4.366113 -0.25647,-2.207447 -0.7286,-3.179666 -1.69435,-3.489046 -0.59266,-0.189859 -1.15581,0.179785 -1.58559,1.040763 -0.9022,1.807398 -1.44256,6.695589 -1.36924,12.386386 0.0314,2.436291 0.0374,2.51136 0.25603,3.194379 0.18428,0.575704 0.20953,0.752786 0.14272,1.000888 -0.22526,0.836537 -1.54694,1.426244 -3.2042,1.429641 -1.09053,0.0022 -1.98059,-0.277407 -2.22069,-0.69771 -0.0587,-0.102764 -0.12545,-0.566466 -0.14832,-1.030441 l -0.0416,-0.843596 -0.69245,0.521279 c -2.86462,2.156504 -7.04902,2.486843 -9.64448,0.761389 -0.69004,-0.458736 -1.3919,-1.191531 -1.76378,-1.841509 l -0.26759,-0.467696 -0.6353,0.613676 c -2.56947,2.482019 -6.02356,3.419789 -9.07645,2.464216 -0.61582,-0.192751 -1.52879,-0.6387 -2.0791,-1.015549 -0.58293,-0.399184 -1.58429,-1.453878 -1.98828,-2.094175 l -0.36657,-0.581003 -0.96405,0.968086 c -1.59763,1.604319 -2.99622,2.37575 -5.20542,2.871195 -0.88945,0.199474 -3.14592,0.206405 -3.99324,0.01226 -2.81946,-0.646002 -4.78444,-2.523638 -5.68659,-5.433815 -0.35607,-1.148603 -0.5067,-2.268393 -0.50727,-3.771136 -9.4e-4,-2.147053 0.36313,-4.00559 1.29603,-6.618212 0.2932,-0.821122 0.53309,-1.522821 0.53309,-1.559326 0,-0.03651 -0.39751,-0.06638 -0.88334,-0.06638 -1.04348,0 -2.3523,-0.180439 -3.30013,-0.45497 -0.37449,-0.108466 -0.68977,-0.188345 -0.7006,-0.177504 -0.0109,0.01084 -0.0777,0.466327 -0.14848,1.012195 -0.54047,4.165674 -2.096,9.295571 -3.91868,12.923214 -1.49449,2.974452 -3.24348,5.26883 -5.06191,6.640397 -0.7777,0.586586 -2.09483,1.229482 -2.88083,1.406146 l -0.63819,0.14344 -0.0579,0.543061 c -0.26525,2.489418 -0.99697,5.077328 -2.0347,7.19618 -0.71221,1.454189 -1.40996,2.498448 -2.30408,3.448266 -1.96678,2.089303 -4.10805,2.943947 -6.851632,2.734691 z m 2.227558,-2.77841 c 2.10203,-1.028426 3.93295,-5.285713 4.15559,-9.662639 l 0.0518,-1.018758 -0.53261,3.15e-4 c -0.29293,1.82e-4 -0.88227,0.05704 -1.30964,0.126353 -2.58216,0.418773 -4.388611,1.693627 -5.418012,3.823603 -0.500122,1.034822 -0.664753,1.670744 -0.721256,2.785995 -0.10465,2.065587 0.714187,3.730139 2.050667,4.168651 0.394938,0.129582 1.220561,0.0225 1.723441,-0.223539 z M 35.604627,58.133444 c 0.247267,-0.113659 0.573314,-0.311294 0.724553,-0.439194 l 0.274974,-0.232544 -0.203108,-0.217359 c -0.361949,-0.387344 -0.502095,-0.761364 -0.502129,-1.340076 -6.6e-5,-1.184285 0.782095,-2.120945 1.973886,-2.36378 l 0.509992,-0.103914 0.100073,-0.533387 c 0.123003,-0.655604 0.135705,-2.266721 0.02332,-2.959104 -0.239742,-1.477129 -0.929535,-3.117998 -1.951932,-4.643227 -0.692398,-1.032928 -1.861325,-2.419274 -1.951598,-2.31459 -0.0328,0.03804 -0.200996,0.667941 -0.373762,1.399787 -0.650842,2.756949 -1.662235,5.975995 -2.623567,8.350258 -0.274669,0.678361 -0.499396,1.306091 -0.499396,1.394949 0,0.354664 0.360589,1.519641 0.668366,2.159318 0.500838,1.040946 1.231983,1.757924 2.076048,2.035824 0.381048,0.125455 1.275611,0.02706 1.754271,-0.192961 z m 21.408354,-0.01528 c 0.575578,-0.263508 1.500332,-1.136707 1.9923,-1.881229 1.560682,-2.36186 2.459894,-5.841944 2.465005,-9.539918 0.0028,-2.128332 -0.360203,-3.339599 -1.244959,-4.152602 -0.874434,-0.803514 -2.362061,-0.638885 -3.531913,0.390861 -0.415469,0.365709 -1.131064,1.391546 -1.53595,2.201846 -1.094707,2.190853 -1.755733,6.081163 -1.521225,8.95282 0.185465,2.271071 0.740772,3.696827 1.613273,4.142088 0.448866,0.22907 1.107255,0.186559 1.763469,-0.113866 z m 42.578275,6.29e-4 c 0.543144,-0.24866 1.398244,-1.034147 1.913014,-1.757267 1.5292,-2.148182 2.53596,-5.922184 2.54766,-9.550326 0.006,-2.011502 -0.30478,-3.210425 -1.04666,-4.031607 -0.49079,-0.543244 -0.92242,-0.708268 -1.73528,-0.663449 -0.82586,0.04554 -1.358278,0.287971 -2.035322,0.926797 -1.992335,1.879864 -3.361026,6.882826 -3.01797,11.031571 0.193361,2.338399 0.703843,3.670214 1.586805,4.139875 0.472264,0.251202 1.104036,0.217422 1.787753,-0.09559 z m 50.480574,0 c 0.54314,-0.24866 1.39824,-1.034147 1.91301,-1.757267 1.5292,-2.148182 2.53596,-5.922184 2.54766,-9.550326 0.006,-2.011502 -0.30477,-3.210425 -1.04666,-4.031607 -0.49079,-0.543244 -0.92242,-0.708268 -1.73528,-0.663449 -0.82586,0.04554 -1.35828,0.287971 -2.03532,0.926797 -1.99234,1.879864 -3.36103,6.882826 -3.01797,11.031571 0.19336,2.338399 0.70384,3.670214 1.58681,4.139875 0.47226,0.251202 1.10403,0.217422 1.78775,-0.09559 z M 18.776996,61.140862 c -1.034615,-0.116685 -1.765631,-0.52716 -2.027093,-1.138237 -0.155337,-0.363044 -0.144125,-0.949164 0.04863,-2.542293 0.336634,-2.782345 0.377527,-3.658379 0.37351,-8.001419 -0.0028,-2.956164 -0.04665,-4.959566 -0.144911,-6.611542 -0.4608,-7.746841 -0.500267,-8.719388 -0.506223,-12.474606 -0.0033,-2.081178 0.02379,-3.964425 0.06024,-4.184987 l 0.06624,-0.401023 -0.401026,0.05609 c -0.220562,0.03087 -0.737837,0.166445 -1.1495,0.30132 -2.314642,0.758362 -3.974105,2.655087 -4.287738,4.900773 -0.296561,2.123476 0.924047,3.995477 3.24568,4.977783 0.795574,0.336612 1.107374,0.578394 1.32462,1.027165 0.595151,1.229419 -0.422466,2.878899 -1.779515,2.884456 -0.699437,0.0028 -1.858064,-0.494098 -3.1202,-1.338326 C 6.4777554,35.91915 5.6745463,31.181207 8.5464953,27.192423 10.694595,24.208975 14.516437,22.478098 18.963992,22.474436 c 2.163259,-0.0019 2.996375,0.173971 3.556338,0.750231 0.52021,0.535351 0.547858,0.774618 0.456337,3.949145 -0.07484,2.595862 -0.02741,6.836317 0.10041,8.978856 0.02728,0.4574 0.12244,2.160186 0.211447,3.783964 0.089,1.623778 0.183783,3.32656 0.21062,3.783963 0.20036,3.414907 0.179106,9.361418 -0.04207,11.768698 -0.393778,4.285968 -0.718713,5.1341 -2.117683,5.527472 -0.555757,0.156271 -1.760001,0.214593 -2.562395,0.124097 z M 78.42628,36.080142 c -0.936956,-0.257944 -1.623118,-0.820579 -2.042539,-1.674833 -0.221027,-0.450171 -0.244472,-0.577681 -0.244472,-1.329565 0,-0.750566 0.02367,-0.87984 0.242775,-1.326094 0.294861,-0.600541 0.805303,-1.127642 1.368257,-1.412913 2.08803,-1.058085 4.501527,0.410437 4.501527,2.739007 0,2.032106 -1.909647,3.531847 -3.825548,3.004398 z"
       id="path1" /></g></svg>
