<svg xmlns="http://www.w3.org/2000/svg" width="55" height="31"><path fill="#000" fill-rule="nonzero" d="M35.136 0a.88.88 0 0 1 .78.478l1.558 2.991c.612-1.17 1.818-1.967 3.203-1.967h2.044c.487 0 .883.404.883.903v5.841a.893.893 0 0 1-.883.903h-2.044c-.084 0-.166-.004-.249-.01l.874 1.677a11.515 11.515 0 0 1 10.489.513.915.915 0 0 1 .337 1.23.873.873 0 0 1-1.202.345 9.785 9.785 0 0 0-8.79-.489l.494.95a8.731 8.731 0 0 1 3.413-.693c4.939 0 8.957 4.11 8.957 9.164C55 26.889 50.982 31 46.043 31c-4.939 0-8.957-4.111-8.957-9.164a9.219 9.219 0 0 1 3.987-7.62l-.496-.95a10.21 10.21 0 0 0-4.004 5.266.885.885 0 0 1-.835.612.863.863 0 0 1-.286-.05.909.909 0 0 1-.55-1.146 12.003 12.003 0 0 1 4.842-6.281l-1.659-3.183a5.05 5.05 0 0 1-.304 1.96l-4.183 8.353a7.16 7.16 0 0 1-3.876 3.439c-.178 1.924-1.765 3.434-3.691 3.434h-6.085C18.496 28.882 15.302 31 11.81 31c-3.491 0-6.685-2.118-8.135-5.33H.883A.893.893 0 0 1 0 24.767v-3.004c0-.5.395-.904.883-.904h2.023c.48-4.589 4.303-8.187 8.904-8.187 2.061 0 3.965.724 5.484 1.934h8.396v-2.62H10.312a6.598 6.598 0 0 0-3.07.746 10.213 10.213 0 0 0-5.153 6.684.888.888 0 0 1-.858.69.866.866 0 0 1-.21-.026.905.905 0 0 1-.648-1.091c.806-3.391 3.015-6.257 6.06-7.863.163-.086.33-.166.499-.24V6.916c0-.704.294-1.376.807-1.845a2.386 2.386 0 0 1 1.883-.613l13.403 1.55A4.942 4.942 0 0 1 26.17 7.66a4.982 4.982 0 0 1 2.269-2.18l2.75-1.3a4.793 4.793 0 0 1 4.918.506l-1.5-2.88h-3.63a.893.893 0 0 1-.883-.904c0-.499.395-.903.883-.903ZM6.794 25.67h-1.12c1.29 2.15 3.617 3.523 6.136 3.523 2.52 0 4.846-1.373 6.137-3.523h-1.12c-1.183 1.621-3.022 2.577-5.017 2.577-1.994 0-3.833-.956-5.016-2.577Zm39.25-11.191c-.909 0-1.777.175-2.578.49l.438.842a6.109 6.109 0 0 1 2.14-.386c3.454 0 6.265 2.876 6.265 6.41 0 3.535-2.81 6.411-6.266 6.411-3.454 0-6.265-2.876-6.265-6.41a6.452 6.452 0 0 1 2.57-5.172l-.44-.842a7.402 7.402 0 0 0-3.056 6.014c0 4.056 3.226 7.357 7.191 7.357s7.191-3.3 7.191-7.357-3.226-7.357-7.19-7.357ZM14.298 25.67H9.322a4.405 4.405 0 0 0 4.977 0Zm31.744-8.438c-.45 0-.885.07-1.296.196l.976 1.873c.23.44.067.988-.364 1.223a.863.863 0 0 1-.414.106.88.88 0 0 1-.78-.479l-.976-1.872a4.638 4.638 0 0 0-1.645 3.557c0 2.538 2.018 4.603 4.5 4.603 2.48 0 4.499-2.065 4.499-4.603 0-2.539-2.019-4.604-4.5-4.604Zm-18.23 5.434H1.766v1.197h24.265c.797 0 1.483-.493 1.782-1.197Zm18.74-1.582a.876.876 0 0 1 1.114.113c.34.34.341.938 0 1.277-.435.458-1.202.282-1.44-.293l-.035-.109a.925.925 0 0 1 .36-.988Zm-23.941-4.671h-3.595a9.229 9.229 0 0 1 1.698 4.447h4.158l-2.261-4.447ZM11.81 14.479c-3.629 0-6.654 2.789-7.124 6.38h14.249c-.47-3.591-3.496-6.38-7.125-6.38Zm23.325-2.493h-7.68v3.524a.893.893 0 0 1-.882.903h-1.97l2.261 4.447h.443c1.986 0 3.8-1.116 4.731-2.91l3.097-5.964Zm-.466-6.094a3.052 3.052 0 0 0-2.74-.071l-2.75 1.3c-1.113.527-1.806 1.649-1.842 2.855.014.067.028.135.04.203h8.615l.136-.37c.548-1.492-.08-3.176-1.459-3.917ZM9.321 6.25a.643.643 0 0 0-.405.17.667.667 0 0 0-.218.497v3.262h16.87c-.35-1.259-1.413-2.221-2.741-2.375L9.424 6.254Zm32.517-2.941h-1.162c-1.027 0-1.864.855-1.864 1.907v.22c0 1.05.837 1.907 1.864 1.907h1.162V3.309Z"/></svg>