<svg xmlns="http://www.w3.org/2000/svg" width="51" height="32"><path fill="#000" fill-rule="nonzero" d="M34.291 1.585c.74-1.134 2.013-1.684 3.714-1.57.44.03.783.394.783.834V4.48c0 .37-.244.697-.601.802l-.87.257a32.439 32.439 0 0 1 3.705 7.944 11.302 11.302 0 0 1 1.834-.162c2.968 0 5.77 1.138 7.891 3.203a.833.833 0 0 1-.005 1.2l-2.138 2.05a7.397 7.397 0 0 1 1.743 4.772c0 4.11-3.36 7.454-7.492 7.454-3.846 0-7.02-2.9-7.44-6.618H20.467C20.047 29.1 16.873 32 13.027 32c-4.131 0-7.492-3.344-7.492-7.454 0-.542.06-1.079.175-1.603H.84a.834.834 0 0 1-.83-.968l.104-.631c.772-4.529 2.148-9.096 5.916-10.59.244-2.97 2.747-5.314 5.794-5.314h6.048c3.208 0 5.818 2.596 5.818 5.788l-.012.115-.017.09-.034.11a.82.82 0 0 1-.105.181l-.01.017c-1.86 2.381-2.104 4.444-.688 5.809 1.84 1.774 6.273 2.097 9.014-.166 3.304-2.726 2.708-8.064-1.62-14.657-1.586-.971-3.582-1.016-6.1-.123a.842.842 0 0 1-1.074-.506.835.835 0 0 1 .51-1.07c2.858-1.013 5.212-.982 7.184.073l1.157-.908a.843.843 0 0 1 1.107.056c.444.43.872.878 1.29 1.336ZM9.901 22.943H7.443a5.763 5.763 0 0 0-.227 1.603c0 3.188 2.606 5.781 5.81 5.781 3.203 0 5.81-2.593 5.81-5.78 0-.547-.078-1.087-.228-1.604h-2.455a3.48 3.48 0 0 1 .398 1.603c0 1.935-1.582 3.508-3.525 3.508-1.944 0-3.526-1.573-3.526-3.508 0-.57.147-1.116.4-1.603Zm32.955-4.177c-3.203 0-5.81 2.593-5.81 5.78 0 3.188 2.607 5.781 5.81 5.781 3.204 0 5.81-2.593 5.81-5.78 0-3.188-2.606-5.781-5.81-5.781Zm0 2.272c1.944 0 3.526 1.574 3.526 3.508 0 1.935-1.582 3.508-3.526 3.508-1.944 0-3.525-1.573-3.525-3.508 0-1.934 1.58-3.508 3.525-3.508Zm-28.937 1.905h-1.778c-.585.32-.958.931-.958 1.603 0 1.012.827 1.835 1.844 1.835a1.842 1.842 0 0 0 1.844-1.835c0-.67-.365-1.28-.952-1.603Zm28.937-.232a1.84 1.84 0 0 0-1.844 1.835c0 1.012.827 1.835 1.844 1.835a1.842 1.842 0 0 0 1.844-1.835 1.841 1.841 0 0 0-1.844-1.835Zm0-7.717c-5.01 0-9.13 3.84-9.557 8.715h2.117c.419-3.717 3.594-6.617 7.44-6.617 1.702 0 3.269.575 4.528 1.53l1.541-1.478a9.569 9.569 0 0 0-6.069-2.15ZM32.351 1.966l-.412.324c6.463 10.153 2.858 14.827.972 16.383-3.14 2.59-8.61 2.63-11.257.079l-.13-.131c-.897-.934-2.277-3.123-.264-6.556H7.406c-3.496.793-4.796 4.79-5.573 9.203h1.142c1.568-4.32 5.803-7.398 10.312-7.398 2.325 0 4.45.843 5.985 2.372 1.523 1.519 2.359 3.601 2.355 5.864a.84.84 0 0 1-.841.835h-.444c.056.254.096.51.124.768h11.152c.345-4.615 3.497-8.46 7.766-9.838-1.444-4.568-3.85-8.66-7.033-11.905ZM13.287 15.544c-3.553 0-7.027 2.396-8.51 5.725H19.9c-.17-1.487-.8-2.83-1.818-3.844-1.216-1.212-2.92-1.88-4.794-1.88Zm4.585-8.431h-6.048a4.138 4.138 0 0 0-4.05 3.28h14.148a4.139 4.139 0 0 0-4.05-3.28Zm19.235-5.42c-.846.097-1.362.502-1.64 1.274.294.365.574.743.852 1.123l.788-.233V1.694Z"/></svg>