<svg xmlns="http://www.w3.org/2000/svg" width="67" height="29"><path fill="#000" fill-rule="nonzero" d="m50.09 6.752.718.01c7.55.18 15.518 2.73 16.18 7.363l.012.164v5.292c0 1.827-1.448 3.313-3.226 3.313h-1.41C61.722 26.365 58.749 29 55.184 29c-3.566 0-6.539-2.635-7.18-6.106H20.948C20.308 26.365 17.335 29 13.77 29c-3.565 0-6.537-2.635-7.18-6.106H4.965c-.94 0-1.83-.42-2.443-1.15l-1.739-2.07A3.365 3.365 0 0 1 0 17.512V9.85c0-1.625 1.134-3 2.696-3.266l5.007-.858C24.32-2.238 38.58-1.893 50.09 6.752Zm-36.32 9.502c-2.814 0-5.103 2.35-5.103 5.24 0 2.888 2.289 5.238 5.103 5.238 2.814 0 5.103-2.35 5.103-5.239s-2.289-5.239-5.103-5.239Zm41.414 0c-2.814 0-5.103 2.35-5.103 5.24 0 2.888 2.29 5.238 5.103 5.238 2.814 0 5.103-2.35 5.103-5.239s-2.289-5.239-5.103-5.239Zm0 1.633c1.936 0 3.512 1.618 3.512 3.606 0 1.989-1.575 3.606-3.512 3.606s-3.512-1.617-3.512-3.606c0-1.988 1.575-3.606 3.512-3.606Zm-41.414 0c1.936 0 3.512 1.618 3.512 3.606 0 1.989-1.575 3.606-3.512 3.606s-3.512-1.617-3.512-3.606c0-1.988 1.576-3.606 3.512-3.606Zm41.414 2.268c-.719 0-1.303.6-1.303 1.338 0 .738.584 1.338 1.303 1.338s1.304-.6 1.304-1.338c0-.738-.585-1.338-1.304-1.338Zm-41.414 0c-.72 0-1.304.6-1.304 1.338 0 .738.586 1.338 1.304 1.338.718 0 1.304-.6 1.304-1.338 0-.738-.586-1.338-1.304-1.338Zm5.616-16.45c-3.225.873-6.58 2.122-10.074 3.756l-.947.451-5.306.908c-.493.084-.85.518-.85 1.03v.45h1.205c.61 0 1.105.507 1.105 1.134 0 .627-.495 1.134-1.105 1.134H2.209v4.945c0 .25.088.491.246.68l1.738 2.07c.194.23.475.363.771.363h1.547c.42-3.732 3.513-6.64 7.259-6.64 3.746 0 6.838 2.908 7.26 6.64h26.895c.42-3.732 3.513-6.64 7.26-6.64 3.745 0 6.838 2.908 7.258 6.64h1.33c.562 0 1.018-.469 1.017-1.045v-4.55h-2.607a1.1 1.1 0 0 1-.96-.572l-2.332-4.203c-2.455-.744-5.453-1.21-8.572-1.236l-.956.003-24.895-.003 3.445 7.26c.267.564.04 1.243-.51 1.517-.156.078-.32.115-.482.115-.41 0-.803-.235-.994-.638L21.71 8.387l-2.324-4.682Zm42.802 7.907.639 1.152h.985c-.423-.406-.978-.79-1.624-1.152ZM30.34 10.3c.61 0 1.104.508 1.104 1.134 0 .627-.495 1.135-1.104 1.135h-1.46c-.61 0-1.104-.508-1.104-1.135 0-.626.494-1.134 1.104-1.134h1.46Zm-8.747-7.14 1.785 3.594h22.718C38.899 2.329 30.795 1.13 21.594 3.159Z"/></svg>