<svg xmlns="http://www.w3.org/2000/svg" width="207" height="113"><g fill="#FFF" fill-rule="nonzero"><path d="M5.19 47.127V0H20.4c3.344 0 6.14.602 8.387 1.806 2.248 1.205 3.943 2.87 5.086 4.994 1.143 2.125 1.714 4.56 1.714 7.306 0 2.746-.571 5.17-1.714 7.272-1.143 2.101-2.835 3.743-5.074 4.924-2.24 1.181-5.017 1.772-8.33 1.772H7.513v-3.935h12.84c2.455 0 4.5-.407 6.133-1.22 1.634-.813 2.853-1.971 3.659-3.474.805-1.504 1.208-3.283 1.208-5.339 0-2.056-.407-3.854-1.22-5.396-.813-1.542-2.036-2.735-3.67-3.578-1.634-.844-3.693-1.266-6.178-1.266H9.492v43.261H5.19Zm20.778-21.262 11.598 21.262h-4.97L21.113 25.865h4.855Z"/><path d="M39.027 79.727h-4.326a13.701 13.701 0 0 0-1.737-4.475 14.073 14.073 0 0 0-3.141-3.602 14.256 14.256 0 0 0-4.28-2.393c-1.596-.568-3.322-.851-5.178-.851-2.976 0-5.688.774-8.134 2.324-2.447 1.55-4.403 3.824-5.868 6.823-1.465 2.999-2.198 6.67-2.198 11.01 0 4.373.733 8.055 2.198 11.046 1.465 2.992 3.42 5.258 5.868 6.8 2.446 1.542 5.158 2.313 8.134 2.313 1.856 0 3.582-.284 5.178-.852a14.395 14.395 0 0 0 4.28-2.382 13.821 13.821 0 0 0 3.14-3.6 13.83 13.83 0 0 0 1.738-4.488h4.326a18.936 18.936 0 0 1-2.151 6.04 18.238 18.238 0 0 1-4.004 4.89c-1.619 1.396-3.479 2.486-5.58 3.268-2.102.782-4.411 1.174-6.927 1.174-3.958 0-7.471-.994-10.54-2.98-3.067-1.987-5.472-4.79-7.213-8.411C.87 97.761 0 93.488 0 88.564c0-4.925.87-9.197 2.612-12.818 1.741-3.62 4.146-6.424 7.214-8.41 3.068-1.987 6.581-2.98 10.54-2.98 2.515 0 4.824.387 6.925 1.162 2.102.774 3.962 1.864 5.58 3.267a18.478 18.478 0 0 1 4.005 4.89 18.804 18.804 0 0 1 2.151 6.052Z" opacity=".7"/><path d="M79.027 0v47.127h-4.303V0z"/><path d="M61.941 112.127h-4.51L74.574 65h4.603l17.143 47.127h-4.51L77.037 70.592h-.323l-14.773 41.535Zm3.245-18.064h23.38v3.866h-23.38v-3.866Z" opacity=".7"/><path d="M131.2 47.127h-13.807V0h14.635c4.495 0 8.342.936 11.54 2.807 3.2 1.872 5.65 4.557 7.353 8.054 1.703 3.498 2.554 7.694 2.554 12.588 0 4.94-.87 9.177-2.612 12.713-1.741 3.536-4.272 6.248-7.594 8.135-3.32 1.887-7.344 2.83-12.069 2.83Zm-9.504-3.866h9.25c4.05 0 7.441-.797 10.172-2.393 2.73-1.595 4.779-3.873 6.144-6.834 1.365-2.961 2.048-6.49 2.048-10.585-.015-4.066-.687-7.563-2.014-10.494-1.327-2.93-3.29-5.177-5.89-6.742-2.6-1.565-5.81-2.347-9.63-2.347h-10.08V43.26Z"/><path d="M120.19 112.127V65h15.21c3.344 0 6.14.602 8.387 1.806 2.248 1.205 3.943 2.87 5.086 4.994 1.143 2.125 1.714 4.56 1.714 7.306 0 2.746-.571 5.17-1.714 7.272-1.143 2.101-2.835 3.743-5.074 4.924-2.24 1.181-5.017 1.772-8.33 1.772h-12.956v-3.935h12.84c2.455 0 4.5-.407 6.133-1.22 1.634-.813 2.853-1.971 3.659-3.474.805-1.504 1.208-3.283 1.208-5.339 0-2.056-.407-3.854-1.22-5.396-.813-1.542-2.036-2.735-3.67-3.578-1.634-.844-3.693-1.266-6.178-1.266h-10.793v43.261h-4.303Zm20.778-21.262 11.598 21.262h-4.97l-11.483-21.262h4.855Z" opacity=".7"/><path d="M178.909 47.127V0h27.337v3.866h-23.034v17.742h21.584v3.866h-21.584v17.787h23.494v3.866z"/><path d="M178.909 112.127V65h27.337v3.866h-23.034v17.742h21.584v3.866h-21.584v17.787h23.494v3.866z" opacity=".7"/></g></svg>